<?xml version="1.0" encoding="UTF-8" standalone="no"?>
<!-- Generator: Adobe Illustrator 16.2.1, SVG Export Plug-In . SVG Version: 6.00 Build 0)  -->

<svg
   xmlns:dc="http://purl.org/dc/elements/1.1/"
   xmlns:cc="http://creativecommons.org/ns#"
   xmlns:rdf="http://www.w3.org/1999/02/22-rdf-syntax-ns#"
   xmlns:svg="http://www.w3.org/2000/svg"
   xmlns="http://www.w3.org/2000/svg"
   xmlns:sodipodi="http://sodipodi.sourceforge.net/DTD/sodipodi-0.dtd"
   xmlns:inkscape="http://www.inkscape.org/namespaces/inkscape"
   version="1.1"
   id="Layer_1"
   x="0px"
   y="0px"
   width="512px"
   height="512px"
   viewBox="0 0 512 512"
   style="enable-background:new 0 0 512 512;"
   xml:space="preserve"
   sodipodi:docname="ion-search-up.svg"
   inkscape:version="0.92.2 5c3e80d, 2017-08-06"><metadata
     id="metadata5960"><rdf:RDF><cc:Work
         rdf:about=""><dc:format>image/svg+xml</dc:format><dc:type
           rdf:resource="http://purl.org/dc/dcmitype/StillImage" /><dc:title></dc:title></cc:Work></rdf:RDF></metadata><defs
     id="defs5958" /><sodipodi:namedview
     pagecolor="#ffffff"
     bordercolor="#666666"
     borderopacity="1"
     objecttolerance="10"
     gridtolerance="10"
     guidetolerance="10"
     inkscape:pageopacity="0"
     inkscape:pageshadow="2"
     inkscape:window-width="960"
     inkscape:window-height="1062"
     id="namedview5956"
     showgrid="false"
     inkscape:zoom="1.84375"
     inkscape:cx="256.9242"
     inkscape:cy="279.92932"
     inkscape:window-x="2040"
     inkscape:window-y="18"
     inkscape:window-maximized="0"
     inkscape:current-layer="Layer_1" /><path
     d="M445,386.7l-84.8-85.9c13.8-24.1,21-50.9,21-77.9c0-87.6-71.2-158.9-158.6-158.9C135.2,64,64,135.3,64,222.9  c0,87.6,71.2,158.9,158.6,158.9c27.9,0,55.5-7.7,80.1-22.4l84.4,85.6c1.9,1.9,4.6,3.1,7.3,3.1c2.7,0,5.4-1.1,7.3-3.1l43.3-43.8  C449,397.1,449,390.7,445,386.7z M222.6,125.9c53.4,0,96.8,43.5,96.8,97c0,53.5-43.4,97-96.8,97c-53.4,0-96.8-43.5-96.8-97  C125.8,169.4,169.2,125.9,222.6,125.9z"
     id="path5953"
     style="fill:#000000;fill-opacity:1" /><g
     transform="matrix(0.58898301,0,0,-0.58898301,68.338999,362.57626)"
     style="fill:#000000;fill-opacity:1"
     id="g4"><polygon
       style="fill:#000000;fill-opacity:1"
       id="polygon2"
       points="128,192 256,320 384,192 " /></g></svg>