<?xml version="1.0" encoding="UTF-8" standalone="no"?>
<!-- Generator: Adobe Illustrator 16.2.1, SVG Export Plug-In . SVG Version: 6.00 Build 0)  -->

<svg
   xmlns:dc="http://purl.org/dc/elements/1.1/"
   xmlns:cc="http://creativecommons.org/ns#"
   xmlns:rdf="http://www.w3.org/1999/02/22-rdf-syntax-ns#"
   xmlns:svg="http://www.w3.org/2000/svg"
   xmlns="http://www.w3.org/2000/svg"
   xmlns:sodipodi="http://sodipodi.sourceforge.net/DTD/sodipodi-0.dtd"
   xmlns:inkscape="http://www.inkscape.org/namespaces/inkscape"
   version="1.1"
   id="Layer_1"
   x="0px"
   y="0px"
   width="512px"
   height="512px"
   viewBox="0 0 512 512"
   style="enable-background:new 0 0 512 512;"
   xml:space="preserve"
   sodipodi:docname="ion-check.svg"
   inkscape:version="0.92.2 5c3e80d, 2017-08-06"><metadata
     id="metadata5361"><rdf:RDF><cc:Work
         rdf:about=""><dc:format>image/svg+xml</dc:format><dc:type
           rdf:resource="http://purl.org/dc/dcmitype/StillImage" /></cc:Work></rdf:RDF></metadata><defs
     id="defs5359" /><sodipodi:namedview
     pagecolor="#ffffff"
     bordercolor="#666666"
     borderopacity="1"
     objecttolerance="10"
     gridtolerance="10"
     guidetolerance="10"
     inkscape:pageopacity="0"
     inkscape:pageshadow="2"
     inkscape:window-width="960"
     inkscape:window-height="1062"
     id="namedview5357"
     showgrid="false"
     inkscape:zoom="0.4609375"
     inkscape:cx="-110.64407"
     inkscape:cy="256"
     inkscape:window-x="2040"
     inkscape:window-y="18"
     inkscape:window-maximized="0"
     inkscape:current-layer="Layer_1" /><path
     d="M461.6,109.6l-54.9-43.3c-1.7-1.4-3.8-2.4-6.2-2.4c-2.4,0-4.6,1-6.3,2.5L194.5,323c0,0-78.5-75.5-80.7-77.7  c-2.2-2.2-5.1-5.9-9.5-5.9c-4.4,0-6.4,3.1-8.7,5.4c-1.7,1.8-29.7,31.2-43.5,45.8c-0.8,0.9-1.3,1.4-2,2.1c-1.2,1.7-2,3.6-2,5.7  c0,2.2,0.8,4,2,5.7l2.8,2.6c0,0,139.3,133.8,141.6,136.1c2.3,2.3,5.1,5.2,9.2,5.2c4,0,7.3-4.3,9.2-6.2L462,121.8  c1.2-1.7,2-3.6,2-5.8C464,113.5,463,111.4,461.6,109.6z"
     id="path5354"
     style="fill:#000000;fill-opacity:1" /></svg>